<?xml version="1.0" encoding="utf-8"?>
<!-- Generator: Adobe Illustrator 22.0.0, SVG Export Plug-In . SVG Version: 6.00 Build 0)  -->
<svg version="1.1" id="Calque_1" xmlns="http://www.w3.org/2000/svg" xmlns:xlink="http://www.w3.org/1999/xlink" x="0px" y="0px"
	 viewBox="0 0 85 85" style="enable-background:new 0 0 85 85;" xml:space="preserve">
<style type="text/css">
	.st0{fill:#248A41;}
	.st1{fill:#CACACA;}
	.st2{fill:#FFFFFF;}
</style>
<path class="st2" d="M72.9,47.6v25.3c0,0.9-0.3,1.7-1,2.4c-0.7,0.7-1.5,1-2.4,1H49.2V56.1H35.8v20.2H15.5c-0.9,0-1.7-0.3-2.4-1
	c-0.7-0.7-1-1.5-1-2.4V47.6c0,0,0-0.1,0-0.2c0-0.1,0-0.1,0-0.2l30.3-25l30.3,25C72.9,47.4,72.9,47.5,72.9,47.6z M84.6,44l-3.3,3.9
	c-0.3,0.3-0.7,0.5-1.1,0.6h-0.2c-0.5,0-0.8-0.1-1.1-0.4L42.5,17.7L6,48.1c-0.4,0.3-0.8,0.4-1.3,0.4c-0.5-0.1-0.8-0.3-1.1-0.6L0.4,44
	C0.1,43.7,0,43.2,0,42.8c0-0.5,0.2-0.9,0.6-1.1L38.5,10c1.1-0.9,2.5-1.4,4-1.4c1.5,0,2.9,0.5,4,1.4l12.9,10.8V10.5
	c0-0.5,0.2-0.9,0.5-1.2c0.3-0.3,0.7-0.5,1.2-0.5h10.1c0.5,0,0.9,0.2,1.2,0.5c0.3,0.3,0.5,0.7,0.5,1.2V32l11.5,9.6
	c0.4,0.3,0.5,0.7,0.6,1.1C85,43.2,84.9,43.7,84.6,44z"/>
</svg>
