<?xml version="1.0" encoding="utf-8"?>
<!-- Generator: Adobe Illustrator 22.0.0, SVG Export Plug-In . SVG Version: 6.00 Build 0)  -->
<svg version="1.1" id="Capa_1" xmlns="http://www.w3.org/2000/svg" xmlns:xlink="http://www.w3.org/1999/xlink" x="0px" y="0px"
	 viewBox="0 0 96 96" style="enable-background:new 0 0 96 96;" xml:space="preserve">
<style type="text/css">
	.st0{fill:#FFFFFF;}
</style>
<path class="st0" d="M70.5,62c4.7-6.5,7.5-14.4,7.5-23C78,17.5,60.5,0,39,0S0,17.5,0,39s17.5,39,39,39c8.6,0,16.5-2.8,23-7.6
	L87.5,96l8.5-8.5C96,87.5,70.5,62,70.5,62L70.5,62z M39,66c-14.9,0-27-12.1-27-27s12.1-27,27-27s27,12.1,27,27S53.9,66,39,66L39,66z
	"/>
</svg>
