<?xml version="1.0" encoding="utf-8"?>
<!-- Generator: Adobe Illustrator 22.0.0, SVG Export Plug-In . SVG Version: 6.00 Build 0)  -->
<svg version="1.1" id="Calque_1" xmlns="http://www.w3.org/2000/svg" xmlns:xlink="http://www.w3.org/1999/xlink" x="0px" y="0px"
	 viewBox="0 0 85 85" style="enable-background:new 0 0 85 85;" xml:space="preserve">
<style type="text/css">
	.st0{fill:#FFFFFF;}
</style>
<path class="st0" d="M71.7,58.4c-3.7,0-7.1,1.6-9.5,4.1L26.4,44.6c0.1-0.7,0.2-1.4,0.2-2.1s-0.1-1.4-0.2-2.1l35.8-17.9
	c2.4,2.5,5.8,4.1,9.5,4.1C79,26.6,85,20.7,85,13.3S79.1,0,71.7,0c-7.3,0-13.3,5.9-13.3,13.3c0,0.7,0.1,1.4,0.2,2.1L22.8,33.3
	c-2.4-2.5-5.8-4.1-9.5-4.1C5.9,29.2,0,35.2,0,42.5s5.9,13.3,13.3,13.3c3.7,0,7.1-1.6,9.5-4.1l35.8,17.9c-0.1,0.7-0.2,1.4-0.2,2.1
	C58.4,79,64.3,85,71.7,85S85,79.1,85,71.7C85,64.4,79.1,58.4,71.7,58.4z"/>
</svg>
